<svg xmlns="http://www.w3.org/2000/svg" width="560" height="76" viewBox="0 0 560 76" role="img" aria-label="window.devicePixelRatio (backing-store scaling): Chrome 1 (caveat), Edge 12 (caveat), Firefox 18 (caveat), Safari 3 (caveat), iOS Safari 2 (caveat)">
<style>text{font:600 12px -apple-system,'Segoe UI',sans-serif;fill:#fff}.hdr{font-weight:700}.sub{font-weight:400;font-size:10px;opacity:.85}</style>
<rect x="0" y="0" width="110" height="28" fill="#57606a"/>
<text class="hdr" x="55" y="19" text-anchor="middle">Chrome</text>
<rect x="0" y="30" width="110" height="44" fill="#b07f0e"/>
<text x="55" y="50" text-anchor="middle">! 1</text>
<text class="sub" x="55" y="66" text-anchor="middle">caveat</text>
<rect x="112" y="0" width="110" height="28" fill="#57606a"/>
<text class="hdr" x="167" y="19" text-anchor="middle">Edge</text>
<rect x="112" y="30" width="110" height="44" fill="#b07f0e"/>
<text x="167" y="50" text-anchor="middle">! 12</text>
<text class="sub" x="167" y="66" text-anchor="middle">caveat</text>
<rect x="224" y="0" width="110" height="28" fill="#57606a"/>
<text class="hdr" x="279" y="19" text-anchor="middle">Firefox</text>
<rect x="224" y="30" width="110" height="44" fill="#b07f0e"/>
<text x="279" y="50" text-anchor="middle">! 18</text>
<text class="sub" x="279" y="66" text-anchor="middle">caveat</text>
<rect x="336" y="0" width="110" height="28" fill="#57606a"/>
<text class="hdr" x="391" y="19" text-anchor="middle">Safari</text>
<rect x="336" y="30" width="110" height="44" fill="#b07f0e"/>
<text x="391" y="50" text-anchor="middle">! 3</text>
<text class="sub" x="391" y="66" text-anchor="middle">caveat</text>
<rect x="448" y="0" width="110" height="28" fill="#57606a"/>
<text class="hdr" x="503" y="19" text-anchor="middle">iOS Safari</text>
<rect x="448" y="30" width="110" height="44" fill="#b07f0e"/>
<text x="503" y="50" text-anchor="middle">! 2</text>
<text class="sub" x="503" y="66" text-anchor="middle">caveat</text>
</svg>